<?xml version="1.0" standalone="no"?>
<!DOCTYPE svg PUBLIC "-//W3C//DTD SVG 20010904//EN"
 "http://www.w3.org/TR/2001/REC-SVG-20010904/DTD/svg10.dtd">
<svg version="1.0" xmlns="http://www.w3.org/2000/svg"
 width="810.000000pt" height="742.000000pt" viewBox="0 0 810.000000 742.000000"
 preserveAspectRatio="xMidYMid meet">

<g transform="translate(0.000000,742.000000) scale(0.100000,-0.100000)"
fill="#000000" stroke="none">
<path d="M3885 7104 c-544 -33 -999 -160 -1455 -405 -543 -291 -1000 -734
-1315 -1273 -64 -110 -190 -368 -225 -461 -120 -322 -184 -583 -222 -900 -17
-143 -17 -567 0 -710 38 -317 102 -578 222 -900 12 -33 56 -129 96 -214 41
-85 74 -158 74 -163 0 -18 -381 -743 -397 -755 -9 -7 -14 -16 -10 -19 3 -4 1
-16 -4 -27 -9 -16 -8 -22 5 -29 9 -5 16 -15 16 -23 0 -15 57 -18 75 -5 6 4
191 45 411 90 l402 83 88 -88 c559 -556 1274 -895 2059 -976 151 -15 506 -15
645 0 519 58 974 208 1402 462 249 148 439 298 671 530 l177 178 368 -131
c202 -72 374 -136 382 -143 42 -34 110 10 102 66 -2 16 -9 29 -16 29 -8 0
-314 483 -449 710 -6 11 14 63 71 180 175 363 280 720 328 1120 24 197 24 563
0 760 -78 649 -322 1239 -723 1745 -107 136 -384 414 -518 521 -444 356 -961
593 -1510 694 -217 40 -567 65 -750 54z m610 -142 c167 -26 339 -65 485 -109
761 -229 1431 -755 1847 -1448 276 -458 430 -962 464 -1517 29 -470 -61 -999
-245 -1441 -41 -99 -136 -291 -140 -286 -16 17 -2760 4468 -2764 4482 -15 56
-91 84 -111 41 -6 -13 -15 -24 -20 -24 -5 0 -9 -8 -9 -17 1 -23 -1786 -3446
-1802 -3451 -6 -2 -90 24 -186 59 -138 49 -175 66 -171 78 2 9 261 511 575
1116 l572 1100 -47 23 c-38 20 -48 21 -58 10 -6 -7 -403 -767 -880 -1688 -477
-921 -871 -1679 -875 -1683 -13 -15 -151 306 -210 488 -108 338 -154 642 -154
1015 0 246 8 341 45 565 141 850 633 1624 1354 2132 440 310 934 497 1500 568
169 21 659 14 830 -13z m821 -2439 c1117 -1809 1220 -1979 1200 -1985 -11 -4
-371 -80 -799 -168 l-778 -161 -1314 468 c-1090 388 -1312 470 -1306 483 5 8
401 768 881 1688 606 1162 876 1670 883 1663 6 -6 561 -901 1233 -1988z
m-3310 -1389 c115 -42 227 -82 249 -89 75 -24 2410 -857 2440 -870 17 -7 25
-14 20 -14 -6 -1 -705 -145 -1554 -321 -848 -176 -1548 -320 -1556 -320 -27 0
-233 268 -353 460 l-62 99 293 565 c160 311 297 565 303 566 6 0 105 -34 220
-76z m4670 -812 c39 -64 92 -152 118 -194 33 -52 46 -83 42 -96 -9 -27 -160
-251 -224 -334 l-53 -67 -92 33 c-51 18 -368 132 -706 252 -337 120 -607 220
-600 223 17 6 1420 299 1434 300 6 0 42 -52 81 -117z m-974 -503 c420 -149
767 -275 771 -279 11 -10 -229 -249 -356 -355 -475 -395 -1002 -631 -1622
-727 -165 -25 -598 -36 -767 -19 -667 68 -1255 310 -1763 727 -122 100 -278
245 -271 252 7 6 3192 670 3223 671 12 1 366 -121 785 -270z m-4310 -231 c63
-78 74 -98 60 -102 -51 -15 -623 -129 -627 -125 -3 4 268 538 298 587 6 8 39
-35 100 -126 51 -75 127 -181 169 -234z m5692 72 c90 -146 162 -267 161 -269
-4 -3 -537 185 -561 198 -8 4 11 36 50 89 35 45 87 121 117 167 30 47 57 84
61 82 5 -1 82 -121 172 -267z"/>
<path d="M2602 1478 c-11 -18 -26 -50 -33 -71 -10 -30 -20 -39 -48 -47 -25 -7
-39 -6 -49 3 -12 10 -14 9 -10 -3 3 -9 21 -17 45 -20 l40 -5 -27 -98 c-30
-107 -36 -119 -50 -97 -6 8 -10 10 -10 4 0 -6 6 -17 14 -23 21 -18 34 6 62
122 23 95 28 106 51 112 14 3 27 4 29 2 3 -2 -2 -44 -11 -92 -18 -103 -19
-188 -4 -216 17 -32 42 -59 56 -59 15 0 43 39 43 60 -1 8 -7 3 -16 -12 -26
-49 -44 -30 -44 45 0 61 29 280 37 288 5 4 19 10 32 14 23 7 24 6 17 -26 -3
-19 -11 -74 -18 -124 -9 -78 -8 -99 6 -148 28 -95 73 -99 115 -9 l24 50 24
-29 c51 -60 100 -23 154 116 l12 30 8 -45 c5 -35 3 -52 -12 -78 -26 -46 -24
-60 5 -33 l24 23 18 -21 c23 -27 39 -27 58 1 15 21 16 21 35 4 25 -23 45 -16
70 24 l18 31 7 -28 c3 -15 13 -37 21 -48 22 -28 44 -12 77 56 26 52 27 53 28
22 0 -50 15 -40 49 32 16 36 32 65 35 65 2 0 2 -36 -1 -80 -5 -75 -4 -83 17
-105 22 -23 25 -24 41 -9 9 8 23 29 29 45 l13 30 22 -21 c13 -12 29 -18 38
-14 12 4 18 -4 26 -31 11 -41 37 -75 56 -75 12 0 44 58 60 109 l7 23 25 -26
c39 -43 71 -33 111 34 18 30 36 67 39 83 6 31 20 44 34 30 5 -5 4 -24 -2 -47
-31 -111 -33 -152 -9 -176 34 -34 56 -25 83 33 26 55 57 150 57 176 0 27 -17
-2 -50 -87 -18 -46 -41 -94 -51 -105 l-18 -22 -1 35 c0 19 7 60 15 90 20 76
19 106 -6 124 -21 14 -21 16 -5 62 20 60 20 83 0 91 -22 8 -72 -47 -80 -87 -5
-22 -1 -36 12 -51 17 -19 17 -22 0 -72 -19 -56 -66 -117 -91 -117 -16 0 -35
30 -35 55 0 9 14 30 30 45 37 35 40 70 6 70 -31 0 -39 -11 -69 -91 -33 -88
-65 -149 -78 -149 -16 0 -6 155 15 225 23 75 31 127 10 63 -20 -63 -34 -61
-28 5 8 72 32 157 46 157 7 0 9 -17 5 -52 -4 -35 -3 -46 3 -33 5 11 9 37 9 58
1 44 -22 60 -44 31 -16 -23 -45 -121 -45 -155 0 -16 -12 -34 -36 -52 -23 -19
-47 -55 -69 -102 -37 -81 -62 -109 -52 -56 4 17 10 67 13 111 6 71 5 80 -11
86 -21 8 -46 -19 -78 -86 l-22 -45 -3 33 c-2 17 -7 32 -11 32 -8 0 -41 -65
-41 -83 0 -7 -14 -28 -30 -47 -39 -46 -50 -31 -50 70 0 77 -9 100 -40 100 -26
0 -67 -50 -90 -110 -25 -64 -47 -92 -54 -69 -14 46 -12 65 15 126 34 74 32
100 -3 29 -12 -25 -25 -46 -28 -46 -3 0 -10 15 -15 33 -15 49 -37 40 -65 -28
-50 -122 -103 -159 -124 -87 -9 31 -7 36 22 59 36 28 45 73 15 73 -31 0 -41
-13 -87 -105 -58 -118 -68 -131 -84 -112 -7 8 -15 45 -19 81 -6 63 -4 68 21
95 59 62 98 240 60 272 -14 11 -19 10 -38 -12 -11 -15 -25 -33 -31 -42 -5 -8
-25 -18 -42 -22 -32 -6 -33 -6 -33 28 0 20 -3 42 -6 51 -10 26 -41 18 -62 -16z
m29 -39 c-5 -32 -12 -44 -30 -50 -21 -9 -23 -7 -17 17 8 30 35 74 45 74 4 0 5
-19 2 -41z m161 -66 c-38 -148 -64 -181 -42 -54 9 52 16 71 27 71 11 0 14 6
10 22 -3 12 -1 31 5 42 20 38 20 -1 0 -81z m1195 -40 c-7 -22 -13 -31 -15 -21
-3 15 14 58 22 58 2 0 -1 -17 -7 -37z m-758 -139 c-12 -27 -24 -43 -26 -36 -3
6 6 33 18 59 30 61 36 42 8 -23z m444 21 c-5 -33 -38 -83 -48 -73 -7 6 19 74
37 95 14 18 17 14 11 -22z m-767 -13 c-18 -16 -18 -16 -6 6 6 13 14 21 18 18
3 -4 -2 -14 -12 -24z m944 7 c-7 -11 -14 -18 -17 -15 -3 3 0 12 7 21 18 21 23
19 10 -6z"/>
<path d="M4425 1486 c-39 -17 -57 -39 -90 -104 -17 -34 -28 -76 -32 -116 -6
-80 12 -97 22 -21 3 30 19 81 36 113 47 95 97 128 139 94 21 -17 24 -28 24
-103 0 -53 -6 -105 -17 -141 -18 -59 -68 -128 -93 -128 -41 0 -43 109 -3 215
33 88 7 90 -38 2 -19 -37 -27 -72 -30 -122 -4 -69 -4 -71 31 -107 19 -21 39
-38 43 -38 4 0 23 9 41 20 100 61 134 340 52 422 -32 31 -42 33 -85 14z"/>
<path d="M4779 1253 c-15 -15 -32 -39 -39 -53 -24 -48 -72 -100 -91 -100 -15
0 -19 7 -19 33 0 41 33 102 54 101 18 -2 21 11 5 21 -24 15 -58 -6 -78 -48
-26 -54 -26 -77 0 -111 26 -33 55 -33 90 0 l27 26 20 -22 c26 -28 45 -21 72
22 17 28 20 30 20 12 0 -26 36 -74 56 -74 7 0 27 26 43 58 20 38 30 50 31 36
0 -20 26 -52 34 -43 2 2 15 27 29 54 18 35 26 44 27 29 0 -12 9 -32 20 -45
l19 -24 13 33 c7 17 15 32 19 32 4 0 9 -27 11 -60 3 -47 9 -64 28 -80 35 -30
52 -21 78 40 25 59 24 52 -3 -51 -20 -70 -15 -113 12 -123 36 -14 48 18 53
149 5 120 6 125 34 154 47 49 89 37 67 -17 -6 -15 -27 -37 -46 -50 -37 -23
-47 -58 -20 -69 19 -7 49 19 81 70 34 52 58 50 51 -3 -4 -33 -1 -46 17 -67 15
-17 29 -24 39 -20 18 7 37 66 37 120 0 33 3 37 28 38 l27 1 -30 8 c-58 15 -60
13 -62 -40 -1 -27 -7 -57 -13 -67 -9 -14 -10 -1 -5 56 l5 74 -24 -26 c-33 -35
-52 -34 -60 3 -3 17 -12 33 -21 36 -24 10 -65 -5 -90 -32 l-23 -25 -8 33 -7
33 -9 -38 c-13 -62 -69 -188 -82 -184 -7 2 -13 44 -17 106 -9 137 -30 158 -65
63 -21 -57 -34 -74 -34 -45 0 55 -32 72 -52 28 -6 -14 -15 -25 -21 -25 -5 0
-6 11 -3 25 7 29 -2 75 -15 75 -5 0 -11 -6 -13 -12 -23 -87 -70 -188 -88 -188
-16 0 -23 30 -28 110 -5 82 -6 85 -30 88 -17 2 -34 -6 -51 -25z m20 -64 c-13
-29 -25 -47 -27 -41 -4 14 36 107 44 100 3 -4 -5 -30 -17 -59z m571 -53 c0 -2
-8 -10 -17 -17 -16 -13 -17 -12 -4 4 13 16 21 21 21 13z m-95 -163 c-5 -24
-13 -43 -17 -43 -12 0 -9 65 4 118 l13 47 5 -40 c3 -22 1 -59 -5 -82z"/>
<path d="M2452 1195 c0 -16 2 -22 5 -12 2 9 2 23 0 30 -3 6 -5 -1 -5 -18z"/>
</g>
</svg>
