<?xml version="1.0" standalone="no"?>
<!DOCTYPE svg PUBLIC "-//W3C//DTD SVG 20010904//EN"
 "http://www.w3.org/TR/2001/REC-SVG-20010904/DTD/svg10.dtd">
<svg version="1.0" xmlns="http://www.w3.org/2000/svg"
 width="810.000000pt" height="742.000000pt" viewBox="0 0 810.000000 742.000000"
 preserveAspectRatio="xMidYMid meet">

<g transform="translate(0.000000,742.000000) scale(0.100000,-0.100000)"
fill="#000000" stroke="none">
<path d="M3885 7104 c-544 -33 -999 -160 -1455 -405 -543 -291 -1000 -734
-1315 -1273 -64 -110 -190 -368 -225 -461 -120 -322 -184 -583 -222 -900 -17
-143 -17 -567 0 -710 38 -317 102 -578 222 -900 12 -33 56 -129 96 -214 41
-85 74 -158 74 -163 0 -18 -381 -743 -397 -755 -9 -7 -14 -16 -10 -19 3 -4 1
-16 -4 -27 -9 -16 -8 -22 5 -29 9 -5 16 -15 16 -23 0 -15 57 -18 75 -5 6 4
191 45 411 90 l402 83 88 -88 c559 -556 1274 -895 2059 -976 151 -15 506 -15
645 0 519 58 974 208 1402 462 249 148 439 298 671 530 l177 178 368 -131
c202 -72 374 -136 382 -143 42 -34 110 10 102 66 -2 16 -9 29 -16 29 -8 0
-314 483 -449 710 -6 11 14 63 71 180 175 363 280 720 328 1120 24 197 24 563
0 760 -78 649 -322 1239 -723 1745 -107 136 -384 414 -518 521 -444 356 -961
593 -1510 694 -217 40 -567 65 -750 54z m610 -142 c167 -26 339 -65 485 -109
761 -229 1431 -755 1847 -1448 276 -458 430 -962 464 -1517 29 -470 -61 -999
-245 -1441 -41 -99 -136 -291 -140 -286 -16 17 -2760 4468 -2764 4482 -15 56
-91 84 -111 41 -6 -13 -15 -24 -20 -24 -5 0 -9 -8 -9 -17 1 -23 -1786 -3446
-1802 -3451 -6 -2 -90 24 -186 59 -138 49 -175 66 -171 78 2 9 261 511 575
1116 l572 1100 -47 23 c-38 20 -48 21 -58 10 -6 -7 -403 -767 -880 -1688 -477
-921 -871 -1679 -875 -1683 -13 -15 -151 306 -210 488 -108 338 -154 642 -154
1015 0 246 8 341 45 565 141 850 633 1624 1354 2132 440 310 934 497 1500 568
169 21 659 14 830 -13z m821 -2439 c1117 -1809 1220 -1979 1200 -1985 -11 -4
-371 -80 -799 -168 l-778 -161 -1314 468 c-1090 388 -1312 470 -1306 483 5 8
401 768 881 1688 606 1162 876 1670 883 1663 6 -6 561 -901 1233 -1988z
m-3310 -1389 c115 -42 227 -82 249 -89 75 -24 2410 -857 2440 -870 17 -7 25
-14 20 -14 -6 -1 -705 -145 -1554 -321 -848 -176 -1548 -320 -1556 -320 -27 0
-233 268 -353 460 l-62 99 293 565 c160 311 297 565 303 566 6 0 105 -34 220
-76z m4670 -812 c39 -64 92 -152 118 -194 33 -52 46 -83 42 -96 -9 -27 -160
-251 -224 -334 l-53 -67 -92 33 c-51 18 -368 132 -706 252 -337 120 -607 220
-600 223 17 6 1420 299 1434 300 6 0 42 -52 81 -117z m-974 -503 c420 -149
767 -275 771 -279 11 -10 -229 -249 -356 -355 -475 -395 -1002 -631 -1622
-727 -165 -25 -598 -36 -767 -19 -667 68 -1255 310 -1763 727 -122 100 -278
245 -271 252 7 6 3192 670 3223 671 12 1 366 -121 785 -270z m-4310 -231 c63
-78 74 -98 60 -102 -51 -15 -623 -129 -627 -125 -3 4 268 538 298 587 6 8 39
-35 100 -126 51 -75 127 -181 169 -234z m5692 72 c90 -146 162 -267 161 -269
-4 -3 -537 185 -561 198 -8 4 11 36 50 89 35 45 87 121 117 167 30 47 57 84
61 82 5 -1 82 -121 172 -267z"/>
</g>
</svg>
